<?xml version="1.0" standalone="no"?>
<!DOCTYPE svg PUBLIC "-//W3C//DTD SVG 20010904//EN"
 "http://www.w3.org/TR/2001/REC-SVG-20010904/DTD/svg10.dtd">
<svg version="1.0" xmlns="http://www.w3.org/2000/svg"
 width="700.000000pt" height="700.000000pt" viewBox="0 0 700.000000 700.000000"
 preserveAspectRatio="xMidYMid meet">
<g transform="translate(0.000000,700.000000) scale(0.100000,-0.100000)"
fill="#000000" stroke="none">
<path d="M3448 6815 c-2 -2 -41 -5 -88 -9 -370 -26 -737 -173 -1030 -411 -61
-50 -205 -194 -260 -260 -198 -239 -354 -580 -395 -865 -15 -106 -24 -174 -23
-179 0 -3 0 -152 -1 -331 l-1 -325 -292 -1 c-161 -1 -306 -4 -323 -7 -159 -27
-312 -139 -383 -279 -66 -131 -62 -23 -59 -1853 1 -913 6 -1673 10 -1690 5
-16 24 -64 44 -105 68 -143 208 -251 366 -284 50 -10 539 -13 2512 -11 l2450
1 66 22 c177 58 325 225 358 402 7 36 10 620 10 1695 1 1613 1 1642 -19 1713
-53 190 -194 330 -381 378 -52 14 -119 17 -361 18 l-298 0 -1 326 c-1 318 -2
354 -13 432 -3 21 -9 57 -12 81 -7 53 -37 173 -63 252 -142 442 -455 815 -880
1049 -46 25 -87 46 -90 46 -4 0 -30 11 -57 24 -87 42 -302 107 -404 122 -14 2
-34 6 -45 8 -18 3 -88 12 -165 20 -14 1 -36 5 -50 9 -26 7 -118 15 -122 12z
m212 -540 c160 -20 288 -59 434 -132 295 -147 527 -403 643 -713 31 -82 70
-247 78 -329 5 -50 10 -575 6 -652 -1 -13 -136 -15 -1321 -15 -1186 0 -1320 2
-1321 15 0 9 0 144 0 301 -1 287 4 377 23 460 5 25 12 58 15 74 20 120 126
339 230 477 217 288 559 482 909 515 38 4 70 8 72 9 4 4 184 -4 232 -10z"/>
</g>
</svg>
