<?xml version="1.0" encoding="UTF-8"?>
<svg xmlns="http://www.w3.org/2000/svg" xmlns:xlink="http://www.w3.org/1999/xlink" viewBox="0 0 240 240" width="240px" height="240px">
<g id="surface77641897">
<path style=" stroke:none;fill-rule:nonzero;fill:rgb(95.686275%,33.333334%,0%);fill-opacity:1;" d="M 120 6.382812 C 85.054688 6.382812 56.53125 34.902344 56.53125 69.851562 L 56.53125 87.984375 L 38.398438 87.984375 C 28.382812 87.984375 20.265625 96.097656 20.265625 106.117188 L 20.265625 214.914062 C 20.265625 224.933594 28.382812 233.050781 38.398438 233.050781 L 201.597656 233.050781 C 211.617188 233.050781 219.734375 224.933594 219.734375 214.914062 L 219.734375 106.117188 C 219.734375 96.097656 211.617188 87.984375 201.597656 87.984375 L 183.464844 87.984375 L 183.464844 69.851562 C 183.464844 36.046875 156.597656 8.816406 123.222656 7.039062 C 122.195312 6.625 121.105469 6.402344 120 6.382812 Z M 120 24.515625 C 145.148438 24.515625 165.332031 44.703125 165.332031 69.851562 L 165.332031 87.984375 L 74.667969 87.984375 L 74.667969 69.851562 C 74.667969 44.703125 94.851562 24.515625 120 24.515625 Z M 120 24.515625 "/>
</g>
</svg>
