<?xml version="1.0" encoding="UTF-8"?>
<svg xmlns="http://www.w3.org/2000/svg" xmlns:xlink="http://www.w3.org/1999/xlink" viewBox="0 0 30 30" width="15px" height="15px">
<g id="surface77641906">
<path style=" stroke:none;fill-rule:nonzero;fill:rgb(95.686275%,33.333334%,0%);fill-opacity:1;" d="M 15 0.796875 C 10.632812 0.796875 7.066406 4.363281 7.066406 8.730469 L 7.066406 10.996094 L 4.800781 10.996094 C 3.546875 10.996094 2.535156 12.011719 2.535156 13.265625 L 2.535156 26.863281 C 2.535156 28.117188 3.546875 29.132812 4.800781 29.132812 L 25.199219 29.132812 C 26.453125 29.132812 27.464844 28.117188 27.464844 26.863281 L 27.464844 13.265625 C 27.464844 12.011719 26.453125 10.996094 25.199219 10.996094 L 22.933594 10.996094 L 22.933594 8.730469 C 22.933594 4.503906 19.574219 1.101562 15.402344 0.878906 C 15.273438 0.828125 15.136719 0.800781 15 0.796875 Z M 15 3.066406 C 18.144531 3.066406 20.667969 5.585938 20.667969 8.730469 L 20.667969 10.996094 L 9.332031 10.996094 L 9.332031 8.730469 C 9.332031 5.585938 11.855469 3.066406 15 3.066406 Z M 15 3.066406 "/>
</g>
</svg>
