<?xml version="1.0" encoding="UTF-8"?>
<svg xmlns="http://www.w3.org/2000/svg" xmlns:xlink="http://www.w3.org/1999/xlink" viewBox="0 0 90 90" width="90px" height="90px">
<g id="surface77641892">
<path style=" stroke:none;fill-rule:nonzero;fill:rgb(95.686275%,33.333334%,0%);fill-opacity:1;" d="M 45 2.394531 C 31.894531 2.394531 21.199219 13.089844 21.199219 26.195312 L 21.199219 32.992188 L 14.398438 32.992188 C 10.644531 32.992188 7.601562 36.035156 7.601562 39.792969 L 7.601562 80.59375 C 7.601562 84.351562 10.644531 87.394531 14.398438 87.394531 L 75.601562 87.394531 C 79.355469 87.394531 82.398438 84.351562 82.398438 80.59375 L 82.398438 39.792969 C 82.398438 36.035156 79.355469 32.992188 75.601562 32.992188 L 68.800781 32.992188 L 68.800781 26.195312 C 68.800781 13.515625 58.722656 3.308594 46.207031 2.640625 C 45.824219 2.484375 45.414062 2.402344 45 2.394531 Z M 45 9.195312 C 54.429688 9.195312 62 16.761719 62 26.195312 L 62 32.992188 L 28 32.992188 L 28 26.195312 C 28 16.761719 35.570312 9.195312 45 9.195312 Z M 45 9.195312 "/>
</g>
</svg>
