<?xml version="1.0" encoding="UTF-8"?>
<svg xmlns="http://www.w3.org/2000/svg" xmlns:xlink="http://www.w3.org/1999/xlink" viewBox="0 0 60 60" width="60px" height="60px">
<g id="surface77765374">
<path style=" stroke:none;fill-rule:nonzero;fill:rgb(95.686275%,33.333334%,0%);fill-opacity:1;" d="M 30 1.597656 C 21.261719 1.597656 14.132812 8.726562 14.132812 17.460938 L 14.132812 21.996094 L 9.601562 21.996094 C 7.09375 21.996094 5.066406 24.023438 5.066406 26.527344 L 5.066406 53.730469 C 5.066406 56.234375 7.09375 58.261719 9.601562 58.261719 L 50.398438 58.261719 C 52.90625 58.261719 54.933594 56.234375 54.933594 53.730469 L 54.933594 26.527344 C 54.933594 24.023438 52.90625 21.996094 50.398438 21.996094 L 45.867188 21.996094 L 45.867188 17.460938 C 45.867188 9.011719 39.148438 2.203125 30.804688 1.757812 C 30.550781 1.65625 30.277344 1.601562 30 1.597656 Z M 30 6.128906 C 36.285156 6.128906 41.332031 11.175781 41.332031 17.460938 L 41.332031 21.996094 L 18.667969 21.996094 L 18.667969 17.460938 C 18.667969 11.175781 23.714844 6.128906 30 6.128906 Z M 30 6.128906 "/>
</g>
</svg>
