<?xml version="1.0" encoding="UTF-8"?>
<svg xmlns="http://www.w3.org/2000/svg" xmlns:xlink="http://www.w3.org/1999/xlink" viewBox="0 0 480 480" width="480px" height="480px">
<g id="surface77765369">
<path style=" stroke:none;fill-rule:nonzero;fill:rgb(95.686275%,33.333334%,0%);fill-opacity:1;" d="M 240 12.765625 C 170.109375 12.765625 113.066406 69.808594 113.066406 139.699219 L 113.066406 175.964844 L 76.800781 175.964844 C 56.761719 175.964844 40.53125 192.195312 40.53125 212.234375 L 40.53125 429.832031 C 40.53125 449.867188 56.761719 466.097656 76.800781 466.097656 L 403.199219 466.097656 C 423.234375 466.097656 439.464844 449.867188 439.464844 429.832031 L 439.464844 212.234375 C 439.464844 192.195312 423.234375 175.964844 403.199219 175.964844 L 366.933594 175.964844 L 366.933594 139.699219 C 366.933594 72.089844 313.195312 17.636719 246.445312 14.078125 C 244.394531 13.25 242.210938 12.808594 240 12.765625 Z M 240 49.03125 C 290.292969 49.03125 330.664062 89.402344 330.664062 139.699219 L 330.664062 175.964844 L 149.332031 175.964844 L 149.332031 139.699219 C 149.332031 89.402344 189.703125 49.03125 240 49.03125 Z M 240 49.03125 "/>
</g>
</svg>
