<?xml version="1.0" encoding="UTF-8"?>
<svg xmlns="http://www.w3.org/2000/svg" xmlns:xlink="http://www.w3.org/1999/xlink" viewBox="0 0 120 120" width="120px" height="120px">
<g id="surface77992172">
<path style=" stroke:none;fill-rule:nonzero;fill:rgb(95.686275%,33.333334%,0%);fill-opacity:1;" d="M 60 3.191406 C 42.527344 3.191406 28.265625 17.453125 28.265625 34.925781 L 28.265625 43.992188 L 19.199219 43.992188 C 14.191406 43.992188 10.132812 48.046875 10.132812 53.058594 L 10.132812 107.457031 C 10.132812 112.46875 14.191406 116.523438 19.199219 116.523438 L 100.800781 116.523438 C 105.808594 116.523438 109.867188 112.46875 109.867188 107.457031 L 109.867188 53.058594 C 109.867188 48.046875 105.808594 43.992188 100.800781 43.992188 L 91.734375 43.992188 L 91.734375 34.925781 C 91.734375 18.023438 78.300781 4.410156 61.609375 3.519531 C 61.097656 3.3125 60.550781 3.203125 60 3.191406 Z M 60 12.257812 C 72.574219 12.257812 82.667969 22.351562 82.667969 34.925781 L 82.667969 43.992188 L 37.332031 43.992188 L 37.332031 34.925781 C 37.332031 22.351562 47.425781 12.257812 60 12.257812 Z M 60 12.257812 "/>
</g>
</svg>
